P2
# Miguel
3 2
3
1 2 3
2 2 3
