P2
# imagen.pgm
24 7
15
10  10  0  0  0  0  0  0  0  0  0  0  0  0  0  0  0  0  0  0  0  0  10  10
10  3  3  3  3  0  0  7  7  7  7  0  0 11 11 11 11  0  0 15 15 15 15  10
0  3  0  0  0  0  0  7  0  0  0  0  0 11  0  0  0  0  0 15  0  0 15  10
0  3  3  3  0  0  0  7  7  7  0  0  0 11 11 11  0  0  0 15 15 15 15  0
0  3  0  0  0  0  0  7  0  0  0  0  0 11  0  0  0  0  0 15  0  0  0  0
10  3  0  0  0  0  0  7  7  7  7  0  0 11 11 11 11  0  0 15  0  0  0  10
10  10  0  0  0  0  0  0  0  0  0  0  0  0  0  0  0  0  0  0  0  0  10  10
