P2
# imagen.pgm
24 7
255
85 85 255 255 255 255 255 255 255 255 255 255 255 255 255 255 255 255 255 255 255 255 85 85 
85 204 204 204 204 255 255 136 136 136 136 255 255 68 68 68 68 255 255 0 0 0 0 85 
255 204 255 255 255 255 255 136 255 255 255 255 255 68 255 255 255 255 255 0 255 255 0 85 
255 204 204 204 255 255 255 136 136 136 255 255 255 68 68 68 255 255 255 0 0 0 0 255 
255 204 255 255 255 255 255 136 255 255 255 255 255 68 255 255 255 255 255 0 255 255 255 255 
85 204 255 255 255 255 255 136 136 136 136 255 255 68 68 68 68 255 255 0 255 255 255 85 
85 85 255 255 255 255 255 255 255 255 255 255 255 255 255 255 255 255 255 255 255 255 85 85 
